Coordinates
version=1
nRows=10
nColumns=63
inDegrees=yes

Units are S.I. units (second, meters, Newtons, ...)
If the header above contains a line with 'inDegrees', this indicates whether rotational values are in degrees (yes) or radians (no).

endheader
time	pelvis_tilt	pelvis_list	pelvis_rotation	pelvis_tx	pelvis_ty	pelvis_tz	hip_flexion_r	hip_adduction_r	hip_rotation_r	knee_angle_r	knee_angle_r_beta	ankle_angle_r	subtalar_angle_r	mtp_angle_r	hip_flexion_l	hip_adduction_l	hip_rotation_l	knee_angle_l	knee_angle_l_beta	ankle_angle_l	subtalar_angle_l	mtp_angle_l	L5_S1_Flex_Ext	L5_S1_Lat_Bending	L5_S1_axial_rotation	L4_L5_Flex_Ext	L4_L5_Lat_Bending	L4_L5_axial_rotation	L3_L4_Flex_Ext	L3_L4_Lat_Bending	L3_L4_axial_rotation	L2_L3_Flex_Ext	L2_L3_Lat_Bending	L2_L3_axial_rotation	L1_L2_Flex_Ext	L1_L2_Lat_Bending	L1_L2_axial_rotation	L1_T12_Flex_Ext	L1_T12_Lat_Bending	L1_T12_axial_rotation	Abs_r3	Abs_r2	Abs_r1	Abs_t1	Abs_t2	neck_flexion	neck_bending	neck_rotation	arm_flex_r	arm_add_r	arm_rot_r	elbow_flex_r	pro_sup_r	wrist_flex_r	wrist_dev_r	arm_flex_l	arm_add_l	arm_rot_l	elbow_flex_l	pro_sup_l	wrist_flex_l	wrist_dev_l
      5.63333333	     -0.29392324	    -17.91949953	     90.17955767	      0.22887665	      0.96825622	      0.49012434	     20.11304742	     -1.05836343	     -8.68360597	     13.07016640	      0.22811744	     19.38882470	     10.06974382	      0.00000000	     16.67475031	      0.87323163	     -8.30418692	      4.15068998	      0.07244321	     18.02937501	     -1.96595249	      0.00000000	      0.39676388	     -1.02858742	      1.79483415	      0.73683019	     -1.36802127	      1.90701128	      0.65184337	     -2.50090746	      1.90701128	      0.45346143	     -2.50090746	      1.57047988	      0.36843494	     -2.09749548	      1.45830274	      0.22671088	     -1.59328192	      1.34612561	      2.83404469	    -11.63558667	      9.98232907	      0.00000000	      0.00000000	     27.95597763	      4.87121690	      1.70433036	     -7.58147832	    -17.41273071	      4.45677880	    103.28892321	     85.37110235	     -7.72228365	     14.08350192	     -4.28635248	    -18.88772610	     11.54069572	     91.44141407	     88.71559546	    -14.87396942	     20.80262457
      5.65000000	     -0.09076563	    -17.77002378	     90.42601693	      0.22960761	      0.96888638	      0.49055091	     19.73142233	     -0.78108905	     -8.64863118	     12.44120597	      0.21714001	     19.22922922	      9.98455581	      0.00000000	     16.78026618	      0.59992209	     -8.59602024	      4.69628118	      0.08196557	     17.92577612	     -1.68181616	      0.00000000	      0.36474761	     -1.02323448	      1.83277470	      0.67737279	     -1.36090186	      1.94732311	      0.59924385	     -2.48789231	      1.94732311	      0.41687005	     -2.48789231	      1.60367786	      0.33870463	     -2.08657975	      1.48912944	      0.20841679	     -1.58499021	      1.37458102	      2.60535572	    -11.57503308	     10.19334303	      0.00000000	      0.00000000	     27.84918808	      4.86154014	      1.57549606	     -7.06895958	    -17.52326922	      4.75134875	    101.91522448	     86.15162904	     -7.86505859	     14.95390080	     -4.50736889	    -19.39113740	     11.78533755	     91.72338306	     88.73454751	    -15.35123541	     21.51176080
      5.66666667	      0.03219601	    -17.68728617	     90.78097486	      0.22994857	      0.96913911	      0.49071406	     19.55895049	     -0.64625961	     -8.31276326	     12.18622303	      0.21268972	     19.38352542	      9.52901176	      0.00000000	     16.74581851	      0.47931700	     -9.24559336	      4.81284466	      0.08399999	     18.05989785	     -0.62368496	      0.00000000	      0.34262024	     -1.02771939	      1.89379974	      0.63628005	     -1.36686678	      2.01216223	      0.56289079	     -2.49879691	      2.01216223	      0.39158067	     -2.49879691	      1.65707478	      0.31815715	     -2.09572537	      1.53871229	      0.19577320	     -1.59193733	      1.42034981	      2.44730210	    -11.62576723	     10.53274604	      0.00000000	      0.00000000	     27.76068229	      4.63671769	      0.95626374	     -6.90390679	    -17.29852282	      4.38096264	    101.02517796	     86.90778919	     -7.89526086	     17.59737200	     -4.71933776	    -19.75853161	     12.19340970	     92.14931938	     88.75230422	    -16.47297409	     22.89689396
      5.68333333	      0.14369310	    -17.62639203	     91.03267170	      0.23048241	      0.96936187	      0.49055336	     19.31309058	     -0.51098431	     -8.23488987	     11.81302087	      0.20617611	     19.43237799	      9.55904233	      0.00000000	     16.69404693	      0.36814832	     -9.29786843	      4.89577448	      0.08544738	     18.13423502	     -0.53902470	      0.00000000	      0.32727538	     -1.03024242	      1.97545375	      0.60778311	     -1.37022242	      2.09891961	      0.53768073	     -2.50493142	      2.09891961	      0.37404304	     -2.50493142	      1.72852203	      0.30390792	     -2.10087034	      1.60505617	      0.18700515	     -1.59584551	      1.48159031	      2.33769534	    -11.65430830	     10.98688113	      0.00000000	      0.00000000	     27.63649136	      4.57776419	      0.92754136	     -6.78060480	    -16.98557455	      4.07577765	     99.79514697	     86.91085555	     -7.97902438	     18.18065930	     -5.05067396	    -20.16612624	     12.49108491	     92.34868428	     88.72226876	    -16.47595579	     22.99323399
      5.70000000	      0.07290419	    -17.45897472	     90.98303774	      0.23122196	      0.96959245	      0.48979710	     18.84124700	     -0.47192899	     -7.98496295	     11.31021050	      0.19740041	     19.28193813	      9.67810894	      0.00000000	     16.35065360	      0.37489617	     -9.96510756	      4.76394100	      0.08314646	     18.23317019	      0.18370533	      0.00000000	      0.29564683	     -1.05139363	      2.15910598	      0.54904573	     -1.39835353	      2.29405011	      0.48571818	     -2.55635847	      2.29405011	      0.33789476	     -2.55635847	      1.88921774	      0.27453765	     -2.14400189	      1.75427361	      0.16893260	     -1.62860873	      1.61932949	      2.11177573	    -11.89357503	     12.00829975	      0.00000000	      0.00000000	     27.56973085	      4.56372408	      0.70349332	     -6.91281200	    -16.32277206	      2.86013537	     99.30769589	     87.04681442	     -7.06461403	     21.99700785	     -5.06719793	    -20.73620004	     13.39360968	     92.61576403	     88.66621047	    -17.15054120	     23.77272635
      5.71666667	      0.06680214	    -17.35334002	     91.18549031	      0.23163192	      0.96972727	      0.48854785	     18.32465926	     -0.45676009	     -8.11517652	     10.76586965	      0.18789987	     18.99490471	      9.89598079	      0.00000000	     16.03044661	      0.41038558	     -9.94849890	      4.54979825	      0.07940896	     18.24940632	      0.39329109	      0.00000000	      0.27864305	     -1.06411939	      2.24735948	      0.51746801	     -1.41527878	      2.38781945	      0.45778267	     -2.58729987	      2.38781945	      0.31846114	     -2.58729987	      1.96643954	      0.25874794	     -2.16995225	      1.82597958	      0.15921664	     -1.64832093	      1.68551961	      1.99031945	    -12.03753131	     12.49913921	      0.00000000	      0.00000000	     27.50579343	      4.84970128	      1.19670595	     -6.97216961	    -15.77580622	      2.30067011	     98.35877455	     87.08872810	     -6.97469293	     22.57550945	     -5.49306048	    -21.12831014	     13.72949990	     92.84178281	     88.60745963	    -17.15894127	     23.54864079
      5.73333333	      0.02486455	    -17.30185403	     91.34261034	      0.23218817	      0.96972996	      0.48707254	     17.83588185	     -0.46755602	     -8.35063265	     10.21824610	      0.17834204	     18.68631419	     10.28027522	      0.00000000	     15.70196319	      0.47673071	     -9.86835402	      4.19972202	      0.07329898	     18.22421572	      0.61654954	      0.00000000	      0.27057415	     -1.07816207	      2.32806779	      0.50248326	     -1.43395555	      2.47357202	      0.44452628	     -2.62144326	      2.47357202	      0.30923920	     -2.62144326	      2.03705931	      0.25125516	     -2.19858809	      1.89155508	      0.15460607	     -1.67007305	      1.74605084	      1.93268411	    -12.19638496	     12.94801460	      0.00000000	      0.00000000	     27.47239784	      5.14934882	      2.05293722	     -7.05054462	    -15.14726462	      1.78191208	     97.53067023	     87.11515789	     -6.96683777	     22.98409323	     -6.03547451	    -21.45009204	     13.90525443	     93.08011861	     88.56106501	    -17.16109789	     22.91758051
      5.75000000	     -0.01050887	    -17.27479015	     91.58484970	      0.23232902	      0.96969358	      0.48543850	     17.41404113	     -0.58747806	     -9.31906343	      9.81595670	      0.17132076	     18.44257315	     11.55381317	      0.00000000	     15.38010477	      0.57203876	     -9.83473655	      3.80159847	      0.06635041	     18.31984603	      1.16057610	      0.00000000	      0.26951770	     -1.07893992	      2.32292258	      0.50052131	     -1.43499009	      2.46810524	      0.44279062	     -2.62333452	      2.46810524	      0.30803178	     -2.62333452	      2.03255726	      0.25027413	     -2.20017428	      1.88737460	      0.15400241	     -1.67127794	      1.74219193	      1.92513796	    -12.20518416	     12.91939851	      0.00000000	      0.00000000	     27.48472898	      5.88156872	      4.03763737	     -6.85287306	    -14.68542420	      1.69864759	     96.62270948	     87.13816734	     -6.60060750	     23.26606913	     -7.06137796	    -21.51342950	     13.63026580	     92.95826540	     88.47773484	    -17.34093427	     19.84123433
      5.76666667	      0.01779793	    -17.32769438	     92.08088147	      0.23227219	      0.96953510	      0.48396763	     17.03050646	     -0.67487849	    -10.41193203	      9.31798716	      0.16262956	     18.22570728	     12.65685408	      0.00000000	     15.21964197	      0.64732594	     -9.60019377	      3.46823724	      0.06053216	     18.40057556	      1.84654894	      0.00000000	      0.27751077	     -1.07506324	      2.25302983	      0.51536525	     -1.42983411	      2.39384420	      0.45592244	     -2.61390877	      2.39384420	      0.31716706	     -2.61390877	      1.97140110	      0.25769650	     -2.19226896	      1.83058674	      0.15856965	     -1.66527296	      1.68977237	      1.98223168	    -12.16133040	     12.53067602	      0.00000000	      0.00000000	     27.52531955	      6.22350706	      5.47836869	     -6.62302956	    -14.30668891	      1.91460373	     95.68885575	     87.09132854	     -6.78481433	     22.96626635	     -8.26890466	    -21.43712581	     13.12721749	     92.65576626	     88.39871644	    -17.67573057	     15.63924074
      5.78333333	      0.03081631	    -17.34206369	     92.70842854	      0.23189551	      0.96934578	      0.48269483	     16.63246896	     -0.78365623	    -11.21354261	      8.84480815	      0.15437102	     18.12682511	     13.19524668	      0.00000000	     15.00432459	      0.79549415	     -9.17246463	      3.02138791	      0.05273317	     18.34558428	      2.41637183	      0.00000000	      0.27756593	     -1.07062346	      2.13208412	      0.51546768	     -1.42392920	      2.26533938	      0.45601306	     -2.60311389	      2.26533938	      0.31723010	     -2.60311389	      1.86557361	      0.25774772	     -2.18321536	      1.73231835	      0.15860117	     -1.65839574	      1.59906309	      1.98262566	    -12.11110673	     11.85801227	      0.00000000	      0.00000000	     27.58464161	      6.63681996	      6.83577124	     -6.28093153	    -14.06376170	      2.39543524	     94.72979484	     87.09307892	     -7.02220731	     22.58256852	     -9.53287764	    -21.21421020	     12.36473870	     92.09860361	     88.38030562	    -17.65495920	     10.52203546
